# xmcd
#
# Track frame offsets: 
#        150
#        14330
#        29543
#        37765
#        53374
#        70855
#        80808
#        90258
#        106671
#        122336
#        135775
#        149005
#
# Disc length: 2158 seconds
#
# Revision: 0
# Processed by: cddbd v1.5.2PL0 Copyright (c) Steve Scherf et al.
# Submitted via: ExactAudioCopy v1.0b1
#
DISCID=89086c0c
DTITLE=Roxanne Potvin - Play
DYEAR=2011
DGENRE=Blues
TTITLE0=Barricades
TTITLE1=You Told Me
TTITLE2=Let Me Go
TTITLE3=Born To Win
TTITLE4=Coral Reef Fishes
TTITLE5=Magic Rainbows
TTITLE6=Dis-Moi Que Tu M'Aimes
TTITLE7=Pretty Girls
TTITLE8=Donnes Ton Mal
TTITLE9=Seashells
TTITLE10=I'm Too Sexy
TTITLE11=Keep Your Head
EXTD=
EXTT0=
EXTT1=
EXTT2=
EXTT3=
EXTT4=
EXTT5=
EXTT6=
EXTT7=
EXTT8=
EXTT9=
EXTT10=
EXTT11=
PLAYORDER=
